# xmcd
#
# Track frame offsets: 
#        150
#        13036
#        26450
#        37163
#        51361
#        61879
#        73727
#        83760
#        95305
#        107855
#        122599
#        136819
#        148104
#
# Disc length: 2142 seconds
#
# Revision: 3
# Processed by: cddbd v1.5.2PL0 Copyright (c) Steve Scherf et al.
# Submitted via: ExactAudioCopy v1.0b1
#
DISCID=b3085c0d
DTITLE=Johnny Horton - Johnny Horton's Greatest Hits
DYEAR=1987
DGENRE=Country
TTITLE0=North To Alaska
TTITLE1=Whispering Pines
TTITLE2=Johnny Reb
TTITLE3=The Mansion You Stole
TTITLE4=I'm Ready If You're Willing
TTITLE5=When It's Springtime In Alaska
TTITLE6=Honky Tonk Man
TTITLE7=The Battle Of New Orleans
TTITLE8=All For the Love Of A Girl
TTITLE9=Sink The Bismarck
TTITLE10=Comanche
TTITLE11=Jim Bridger
TTITLE12=Johnny Freedom
EXTD=Columbia
EXTT0=
EXTT1=
EXTT2=
EXTT3=
EXTT4=
EXTT5=(It's Forty Below)
EXTT6=
EXTT7=
EXTT8=
EXTT9=
EXTT10=(The Brave Horse)
EXTT11=
EXTT12=
PLAYORDER=
